<?xml version="1.0" encoding="UTF-8"?>
<svg id="Layer_1" data-name="Layer 1" xmlns="http://www.w3.org/2000/svg" version="1.1" viewBox="0 0 595.28 841.89">
  <defs>
    <style>
      .cls-1 {
        fill: #231f20;
        stroke-width: 0px;
      }
    </style>
  </defs>
  <path class="cls-1" d="M111.88,780.03c1.93-3.21,4.04-6.56,6.66-9.25,2.15-2.2,5.14-1.65,7.69-.42,2.98,1.43,5.72,3.53,8.14,5.77s4.51,4.71,5.73,7.7c2.04,5,1.16,11.54-4.04,14.14-2.77,1.39-6.22,1.46-9.22,1.02-3.16-.47-6.19-1.6-8.85-3.37-5.87-3.93-8.8-11.46-6.22-18.17.48-1.26-.53-2.74-1.75-3.08-1.41-.39-2.59.48-3.08,1.75-2.92,7.62-.08,16.66,6,21.9,6.03,5.2,15.27,7.74,23.01,5.34,3.75-1.17,7-3.69,8.65-7.31s1.86-7.41,1.04-11.15c-1.71-7.74-8.54-13.98-15.09-17.88-3.95-2.35-9.09-3.99-13.38-1.5-2.18,1.26-3.69,3.45-5.18,5.41-1.6,2.11-3.08,4.31-4.45,6.59-1.66,2.77,2.66,5.28,4.32,2.52h0Z"/>
  <path class="cls-1" d="M144.71,785.59l14.16-.95c2.4-.16,4.8-.32,7.21-.48,2.07-.14,4.82.13,6.69-.9,2.09-1.15,1.99-3.18,2.48-5.18.33-1.34,1.15-2.52,2.24-3.37,2.69-2.1,6.38-1.74,9.2-.11,5.09,2.96,6.44,9.43,4.65,14.64-2.21,6.43-9.95,8.54-16.19,9.01-3.47.26-7.14-.23-8.3-4-1.38-4.47-1.09-9.55.07-14.03.81-3.12-4.02-4.45-4.82-1.33-1.28,4.93-1.47,10.11-.46,15.11.89,4.42,3.66,7.92,8.19,8.91,4.18.91,8.68.1,12.76-.96s8.16-2.94,10.83-6.32c4.53-5.74,5.01-14.58.82-20.67-4.84-7.03-15.93-9.6-21.75-2.26-.78.98-1.37,2.03-1.8,3.21-.2.55-.33,1.1-.41,1.67,0,.04-.26,1.41-.2,1.45.03.02.4-.09.43-.22-.03.1-1,.11-.94.1-.75.05-1.49.1-2.24.15l-4.47.3-18.14,1.21c-1.35.09-2.5,1.08-2.5,2.5,0,1.28,1.15,2.59,2.5,2.5h0Z"/>
  <path class="cls-1" d="M111.38,770.69c-8.66-.54-17.34-.83-26.02-.86-2.15,0-4.3,0-6.45.03s-4.33.3-5.49,2.36c-.91,1.62-.95,3.64-1.21,5.43-.3,2.1-.61,4.21-.91,6.31-.7,4.86-1.4,9.71-2.1,14.57-.19,1.33.33,2.69,1.75,3.08,1.17.32,2.88-.4,3.08-1.75.72-5.02,1.45-10.04,2.17-15.06.37-2.59.75-5.18,1.12-7.77.07-.47.06-1.93.42-2.29-.32.31.76.12.93.12.58,0,1.16-.01,1.74-.02,10.33-.09,20.67.2,30.98.84,3.21.2,3.2-4.8,0-5h0Z"/>
</svg>