<?xml version="1.0" encoding="UTF-8"?>
<svg id="Layer_1" data-name="Layer 1" xmlns="http://www.w3.org/2000/svg" version="1.1" viewBox="0 0 595.28 841.89">
  <defs>
    <style>
      .cls-1 {
        fill: #58595b;
      }

      .cls-1, .cls-2, .cls-3 {
        stroke-width: 0px;
      }

      .cls-2 {
        fill: #231f20;
      }

      .cls-3 {
        fill: #fff;
      }
    </style>
  </defs>
  <path class="cls-3" d="M33.93,646.05c2.05.08,4.11.05,6.15-.11.67-.05,1.28-.24,1.77-.73.43-.43.76-1.15.73-1.77s-.24-1.32-.73-1.77-1.11-.78-1.77-.73c-2.05.16-4.1.2-6.15.11-1.31-.05-2.56,1.19-2.5,2.5.06,1.4,1.1,2.44,2.5,2.5h0Z"/>
  <path class="cls-2" d="M32.64,644.97c5.99-.56,12.01.08,17.72,1.97.65.22,1.3.45,1.94.69.25.1.9.22,1.06.42.22.26.33-.76.07.32-.24.98-1.47,1.84-2.29,2.31-1.99,1.15-4.37,1.52-6.62,1.79-3.1.37-6.23.56-9.34.35-1.5-.1-3.02-.28-4.49-.64-.98-.24-2.25-.62-2.88-1.49-2.97-4.14,11.45-5.79,12.95-7.12,1-.88,1.37-2.4,1.84-3.6.5-1.28,1-2.56,1.58-3.81,1.14-2.4,2.58-4.65,4.92-6.02,1.39-.81.13-2.97-1.26-2.16-2.48,1.45-4.22,3.72-5.5,6.25-.6,1.2-1.12,2.44-1.61,3.68-.52,1.31-.87,3.5-2.29,4.02-.85.31-1.85.39-2.73.6-.93.23-1.85.49-2.76.77-1.61.5-3.3,1.02-4.78,1.83-2.39,1.3-4.18,4.22-2.51,6.8s5.2,2.91,7.86,3.22c3.66.42,7.36.24,11.01-.2,2.8-.33,5.74-.78,8.17-2.31,1.66-1.04,4.75-4.12,2.84-6.2-.57-.62-1.6-.88-2.35-1.17-.85-.33-1.72-.64-2.59-.91-1.89-.6-3.82-1.07-5.77-1.42-4.03-.7-8.11-.88-12.18-.5-1.59.15-1.6,2.65,0,2.5h0Z"/>
  <path class="cls-2" d="M49.6,627.95c9.25-14.03,18.38-28.06,26.2-42.96,2.2-4.2,4.32-8.45,6.36-12.73.69-1.45-1.47-2.72-2.16-1.26-7.14,15.03-15.36,29.5-24.47,43.42-2.68,4.1-5.39,8.18-8.09,12.27-.89,1.35,1.28,2.6,2.16,1.26h0Z"/>
  <path class="cls-2" d="M83.16,569.99c-4.18-22.37-8.94-44.75-11.22-67.42-.63-6.31-1.05-12.65-1.19-18.99l-1.58,1.21c2.53.95,4.2,3.25,5.66,5.39,1.84,2.69,3.65,5.41,5.48,8.11,3.76,5.57,7.52,11.15,11.29,16.72,3.53,5.24,7.06,10.47,11.05,15.38,3.74,4.61,7.76,8.99,11.55,13.55,1.96,2.37,3.87,4.78,5.62,7.31,1.62,2.32,3.99,5.08,3.5,8.09-.25,1.51-.93,2.92-1.54,4.3-.72,1.61-1.42,3.23-2.1,4.85-1.23,2.9-2.41,5.83-3.56,8.77-4.68,12.02-8.76,24.27-12.93,36.47-2.34,6.85-4.41,13.89-7.24,20.56-1.32,3.1-3.14,5.83-4.78,8.76-1.49,2.67-2.42,5.51-1.13,8.44.23.52.91.68,1.41.57,6.5-1.42,13.13-2.07,19.78-1.92,4.48.1,11.28-.04,13.84,4.47l.75-1.84c-9.66,2.99-20.25,2.39-29.47-1.8-1.45-.66-2.73,1.49-1.26,2.16,9.83,4.47,21.07,5.25,31.4,2.05.77-.24,1.16-1.12.75-1.84-2.86-5.03-9.41-5.45-14.56-5.66-7.35-.3-14.72.39-21.9,1.96l1.41.57c-1.22-2.76,1.05-5.87,2.45-8.1,1.57-2.51,2.87-5.12,3.99-7.86,2.46-6.03,4.37-12.31,6.48-18.47,4.28-12.52,8.45-25.09,13.24-37.43,1.18-3.04,2.39-6.06,3.66-9.06s2.89-5.77,3.61-8.81-.39-5.55-2.04-8.12-3.31-4.81-5.11-7.1c-3.76-4.79-7.87-9.28-11.79-13.92-4.19-4.95-7.92-10.2-11.54-15.57-4.27-6.33-8.54-12.66-12.81-18.98-2.03-3-3.98-6.07-6.11-9.01-1.7-2.35-3.62-4.4-6.39-5.44-.76-.29-1.6.45-1.58,1.21.49,22.78,4.68,45.25,8.86,67.59,1.21,6.5,2.43,12.99,3.64,19.49.29,1.58,2.7.91,2.41-.66h0Z"/>
  <path class="cls-2" d="M70.1,479.43c-2.48-10.17-1.6-20.75.44-30.92s4.73-19.48,7.88-28.96c6.22-18.78,14.38-36.91,24.32-54.01,1.25-2.15,2.53-4.28,3.83-6.4,1.21-1.96,2.39-3.97,3.99-5.64,3.04-3.17,7.25-3.99,11.49-3.74s8.73,1.52,13.05,2.46c5.05,1.09,10.16,1.87,15.29,2.47,10.31,1.2,20.69,1.66,31.03,2.53,5.17.44,10.34.97,15.47,1.77s10.05,2.48,15.02,1.72c2.33-.36,4.3-1.52,6.39-2.53s4.55-1.69,6.94-2.02c4.72-.64,9.54-.18,14.25.34.86.09,2.46.12,2.13,1.37-.29,1.08-1.57,1.89-2.5,2.36-1.82.93-3.95,1.19-5.97,1.34-5.27.38-10.58.26-15.84-.29-2.62-.28-5.22-.68-7.8-1.18-1.57-.31-2.24,2.1-.66,2.41,5.49,1.07,11.07,1.68,16.67,1.77,4.63.07,10.04.3,14.36-1.65,1.86-.84,3.8-2.35,4.24-4.45s-1.18-3.64-3.16-4c-2.41-.43-4.94-.56-7.38-.7s-5.11-.17-7.64.1c-2.39.26-4.76.74-7.01,1.62-2.36.92-4.49,2.47-7,2.98-2.75.56-5.61,0-8.31-.53s-5.28-.97-7.93-1.35c-10.94-1.57-21.98-2.11-32.99-2.96-5.41-.41-10.82-.9-16.19-1.65s-10.46-1.83-15.65-3.01c-4.4-1-8.99-1.9-13.51-1.24s-8.03,3.19-10.65,6.91c-2.92,4.14-5.41,8.65-7.9,13.06s-5.06,9.26-7.39,13.98c-4.59,9.28-8.68,18.81-12.25,28.53s-6.71,19.87-9.23,30.04-4.61,21.5-3.53,32.39c.26,2.61.69,5.19,1.31,7.73.38,1.56,2.79.9,2.41-.66h0Z"/>
  <path class="cls-2" d="M192.07,479.09c-6.14-6.06-6.02-15.64-10-22.92-.77-1.41-2.93-.15-2.16,1.26,4.13,7.55,3.98,17.1,10.39,23.43,1.15,1.13,2.91-.64,1.77-1.77h0Z"/>
  <path class="cls-2" d="M112.14,350.19c.65,2.98,1.61,5.68,1.61,8.77,0,3.38.01,6.75.14,10.12s.38,6.77.83,10.12c.42,3.12,1.05,6.2,1.49,9.32,1.77,12.59,5.25,24.87,9.83,36.71,1.17,3.01,2.45,5.97,3.69,8.95.84,2.02,1.72,3.88,3.1,5.6,2.52,3.17,6.05,5.33,9.73,6.9,4.03,1.72,8.28,2.83,12.52,3.89s8.61,1.83,12.51,3.6c3.17,1.44,6.1,3.5,9.03,5.36,2.76,1.75,5.63,3.8,8.71,4.93,1.6.59,3.33.75,4.99,1.1,1.38.29,3.01.59,4.17,1.46,1.97,1.49,2.55,4.22,3.12,6.48.4,1.56,2.81.9,2.41-.66-.53-2.07-1.08-4.23-2.33-6-1.53-2.17-3.73-3.02-6.24-3.59-1.44-.33-2.91-.5-4.35-.86-1.53-.39-2.9-1.21-4.27-1.99-2.58-1.47-5.07-3.11-7.58-4.69s-5-3.25-7.75-4.25c-2.03-.73-4.1-1.33-6.18-1.89-4.23-1.13-8.51-2.06-12.7-3.35-3.95-1.22-8-2.76-11.24-5.4-3.78-3.08-5.3-7.34-7.11-11.72-4.86-11.75-8.71-23.95-10.9-36.49-.63-3.62-1.1-7.25-1.74-10.86s-1-7.47-1.18-11.24-.2-7.39-.2-11.09c0-1.71-.06-3.36-.44-5.04s-.9-3.24-1.26-4.88-2.75-.91-2.41.66h0Z"/>
  <path class="cls-2" d="M116.43,343.14l5.3-5.59c1.24-1.31,3.59-2.99,3.53-5.02s-1.98-3.35-3.13-4.74c-1.27-1.53-2.36-3.22-3.31-4.97-3.87-7.15-5.23-15.41-6.22-23.38-.56-4.5-1.45-9.32-.57-13.83s3.73-8.66,6.09-12.64c2.56-4.31,5.1-8.62,7.67-12.92,1.2-2.01,2.47-3.88,4.51-5.13s4.2-2.02,6.32-2.9c8.91-3.72,18.06-6.88,27.86-5.95,5,.47,9.89,1.74,14.75,2.97,3.88.98,7.81,2.02,11.41,3.81s6.77,4.52,8.88,8.19c2.42,4.19,4.26,8.76,6.3,13.14s4.33,8.82,5.86,13.46c1.24,3.77,2.64,9.05.38,12.71s-7.38,3.62-11,3.95c-4.73.43-9.48.54-14.22.33-9.53-.41-18.99-2.12-28.07-5.05-2.26-.73-4.49-1.54-6.7-2.41-.55-.22-1.11.16-1.41.57-2.75,3.72-3.19,8.73-1.85,13.08,1.44,4.64,4.75,8.47,8.53,11.41,7.85,6.13,17.59,8.98,27.32,10.4,5.58.82,11.21,1.22,16.84,1.56l-1.08-1.88c-7.28,11.87-22.15,15.06-35.1,13.7-7.48-.79-14.97-2.76-22.04-5.31-6.51-2.34-12.86-5.54-17.99-10.25s-9.41-11.39-10.27-18.66c-.19-1.58-2.69-1.6-2.5,0,1.75,14.71,13.87,24.74,26.82,30.07,7.33,3.01,15.22,5.16,23.07,6.29s15.43,1.05,22.76-1.38,13.48-6.76,17.42-13.19c.52-.85-.17-1.83-1.08-1.88-9.21-.55-18.53-1.23-27.42-3.87-8.23-2.45-17.42-7.01-21.67-14.88-2.35-4.36-2.62-9.84.41-13.94l-1.41.57c9.23,3.66,18.92,6.02,28.79,7.06,5.02.53,10.09.71,15.14.52,2.45-.09,4.89-.26,7.33-.52,2.09-.22,4.23-.44,6.23-1.11,9.87-3.28,6.77-15.15,3.75-22.39-1.98-4.76-4.28-9.4-6.46-14.08-2.05-4.39-3.84-9.15-7-12.88-5.56-6.56-14.73-8.46-22.68-10.41-5.05-1.23-10.19-2.32-15.4-2.41-4.95-.08-9.86.85-14.57,2.29s-9.42,3.43-14.02,5.39c-2.06.88-4.12,1.86-5.74,3.44s-2.79,3.71-3.97,5.69c-2.69,4.54-5.38,9.07-8.07,13.61-2.44,4.12-4.86,8.23-5.39,13.08s.36,9.5.97,14.12c.56,4.28,1.24,8.56,2.36,12.74,1.05,3.93,2.5,7.81,4.56,11.33,1.05,1.79,2.27,3.5,3.63,5.06.52.6,2,1.7,1.84,2.55-.08.42-.57.8-.86,1.1-.57.6-1.14,1.2-1.71,1.8l-5.47,5.77c-1.11,1.17.66,2.94,1.77,1.77h0Z"/>
  <path class="cls-2" d="M137.31,258.86c-5.74,3.05-9.5,9.25-9.58,15.75-.01.8,1.24.81,1.25,0,.08-6.07,3.6-11.82,8.96-14.67.71-.38.08-1.46-.63-1.08h0Z"/>
  <path class="cls-2" d="M126.35,255.06c-10.14,2.18-16.51,10.98-22.07,19-.46.66.62,1.29,1.08.63,5.38-7.75,11.52-16.32,21.33-18.43.79-.17.45-1.37-.33-1.21h0Z"/>
  <path class="cls-2" d="M144.46,261c-2.73,4.03-4.32,8.75-4.63,13.61-.05.8,1.2.8,1.25,0,.29-4.65,1.85-9.13,4.46-12.98.45-.67-.63-1.29-1.08-.63h0Z"/>
  <path class="cls-2" d="M167.62,256.19c1.89.1,3.65-1.14,4.29-2.89.11-.29-.09-.63-.36-.74-.31-.12-.59,0-.78.26-.96,1.28-1.92,2.56-2.87,3.84-.16.22-.08.58.1.76.21.21.5.21.76.1,1.75-.76,3.35-1.88,4.67-3.25l-.88-.88c-.35.43-.82.67-1.38.67-.8,0-.81,1.25,0,1.25.86,0,1.71-.37,2.26-1.04.21-.26.25-.63,0-.88-.24-.24-.65-.24-.88,0-1.26,1.3-2.76,2.33-4.42,3.06l.86.86c.96-1.28,1.92-2.56,2.87-3.84l-1.14-.48c-.46,1.25-1.79,2.04-3.09,1.97-.34-.02-.62.3-.62.62,0,.35.29.61.62.62h0Z"/>
  <path class="cls-2" d="M174.79,258.45c-3.19,1.51-5.88,3.97-7.71,6.98-.42.69.66,1.32,1.08.63,1.72-2.84,4.26-5.11,7.26-6.53.73-.34.09-1.42-.63-1.08h0Z"/>
  <path class="cls-2" d="M183.45,265.29c-3.88,1.16-7.24,3.74-9.38,7.18-.43.69.66,1.31,1.08.63,1.96-3.16,5.06-5.54,8.63-6.6.77-.23.44-1.44-.33-1.21h0Z"/>
  <path class="cls-2" d="M193.34,256.6l-3.99-.43c-.33-.04-.64.31-.62.62.02.37.28.59.62.62l3.99.43c.33.04.64-.31.62-.62-.02-.37-.28-.59-.62-.62h0Z"/>
  <path class="cls-2" d="M198.24,267.75c1.64,1.09,2.94,2.63,3.78,4.43.14.31.58.38.86.22.31-.18.37-.55.22-.86-.92-1.98-2.4-3.67-4.23-4.88-.28-.19-.69-.06-.86.22-.18.31-.06.67.22.86h0Z"/>
  <path class="cls-2" d="M115.3,340.03c-1.06,4.35-6.21,7.41-4.96,12.36.2.78,1.4.45,1.21-.33-.56-2.21.65-4.34,1.87-6.1s2.57-3.48,3.09-5.6c.19-.78-1.01-1.11-1.21-.33h0Z"/>
  <path class="cls-2" d="M122.96,260.75c-7.37,2.74-13.7,7.83-17.94,14.45-.44.68.65,1.31,1.08.63,4.06-6.33,10.15-11.25,17.2-13.87.75-.28.42-1.49-.33-1.21h0Z"/>
  <path class="cls-2" d="M138.69,250.97c-3.56-1.68-7.73-1.62-11.23.17-.72.37-.08,1.45.63,1.08,3.08-1.58,6.84-1.65,9.97-.17.72.34,1.36-.74.63-1.08h0Z"/>
  <path class="cls-2" d="M178.7,290.54c3.92,0,7.68-3.45,7.5-7.5s-3.3-7.5-7.5-7.5c-3.92,0-7.68,3.45-7.5,7.5s3.3,7.5,7.5,7.5h0Z"/>
  <path class="cls-2" d="M202.2,291.87c3.92,0,7.68-3.45,7.5-7.5s-3.3-7.5-7.5-7.5c-3.92,0-7.68,3.45-7.5,7.5s3.3,7.5,7.5,7.5h0Z"/>
  <path class="cls-2" d="M197.92,472.69s-.03.34-.01.2c.02-.15-.03.16-.04.19-.04.2-.09.39-.16.58-.04.11-.08.23-.13.34.07-.16-.02.03-.05.09-.09.18-.19.36-.29.54s-.22.34-.34.51c-.07.1.07-.07-.07.09-.07.08-.13.16-.2.23-.3.34-.63.66-.98.96-.38.33-.52.43-.9.7-.36.26-.73.51-1.1.75s-.76.51-1.17.73c-.03.01-.27.14-.11.07-.1.04-.2.07-.3.1-.08.02-.28.05-.1.03-.13,0-.25,0-.38-.01-.65-.07-1.28.62-1.25,1.25.03.73.55,1.18,1.25,1.25,1.17.12,2.22-.53,3.15-1.15s1.84-1.23,2.68-1.95c1.63-1.41,2.84-3.31,2.99-5.5.04-.65-.61-1.28-1.25-1.25-.71.03-1.2.55-1.25,1.25h0Z"/>
  <path class="cls-2" d="M199.11,477.35c1.96-3.34,5.75-4.63,9.35-5.32.95-.18,1.92-.35,2.88-.47,1.26-.17,1.8.22,2.47,1.21,1.01,1.49,1.54,3.22,1.87,4.97.73,3.9.6,8.03.64,11.98.05,4.47,0,8.94-.06,13.41-.02,1.61,2.48,1.61,2.5,0,.06-5.3.13-10.59.02-15.89-.09-4.33.07-9.08-1.53-13.19-.66-1.68-1.65-3.73-3.3-4.65-1.82-1.02-4.69-.08-6.59.31-4.11.84-8.2,2.62-10.41,6.38-.82,1.39,1.34,2.65,2.16,1.26h0Z"/>
  <path class="cls-2" d="M215.82,501.64c-.43,11.32-.86,22.65-1.77,33.94s-2.63,22.44-4.07,33.66-1.9,22.74-2.41,34.15-1.03,22.92-1.55,34.37l-.19,4.23c-.06,1.25.06,2.7-.33,3.91-.62,1.91-3.07,1.8-4.43.74-1.76-1.37-2.33-3.85-2.84-5.91-.67-2.72-1.18-5.47-1.54-8.25-1.4-10.86-.62-21.89.94-32.68s3.96-21.99,6-32.97,3.98-22.26,5.62-33.44c1.63-11.12,2.99-22.29,3.96-33.49.24-2.77.45-5.55.64-8.32.09-1.39.18-2.78.26-4.17.06-1.14.11-2.3-.31-3.38-.8-2.07-2.95-2.73-4.91-3.28-2.54-.72-5.16-1.17-7.79-1.38s-5.21-.14-7.8.16c-1.58.18-1.6,2.69,0,2.5,5.37-.62,10.87-.21,16.03,1.45,1.17.38,2.12.79,2.3,2.13s-.08,2.7-.16,4c-.18,2.86-.39,5.72-.62,8.57-.95,11.55-2.33,23.07-4.01,34.54s-3.61,22.65-5.71,33.92c-2.06,11.05-4.43,22.06-6.01,33.2s-2.33,22.09-.87,33.1c.35,2.68.83,5.35,1.45,7.98.52,2.17,1.1,4.44,2.47,6.25,2.24,2.98,7.66,4.11,9.48.03.95-2.13.66-4.94.76-7.21.13-2.99.27-5.98.4-8.97.26-5.81.52-11.62.78-17.44.52-11.53.77-23.11,1.79-34.61s3.08-22.87,4.3-34.34,1.81-22.91,2.28-34.4c.12-2.87.23-5.74.34-8.61.06-1.61-2.44-1.61-2.5,0h0Z"/>
  <path class="cls-2" d="M195.37,656.08c.96-1.41,1.28-3.52,2.65-4.61s3.95-1.17,5.64-1.22c3.55-.1,6.7,2.2,7.59,5.66l1.21-1.58c-7.67.12-15.34.24-23.01.37-1.61.03-1.61,2.53,0,2.5,7.67-.12,15.34-.24,23.01-.37.82-.01,1.41-.79,1.21-1.58-1.12-4.32-5.12-7.47-9.59-7.5-2.23-.01-5.21.2-7.13,1.44-2.06,1.34-2.43,3.72-3.72,5.63-.91,1.33,1.26,2.59,2.16,1.26h0Z"/>
  <path class="cls-1" d="M197.75,480.94c2.89-.52,5.74-1.2,8.56-2.04,1.18-.35,1.98-1.51,1.79-2.74-.16-1.1-1.21-2.33-2.46-2.17-1.02.13-1.65.09-2.5-.38l-.6,4.57c1.67-.34,3.34-.65,5.02-.93.9-.15,1.79-.28,2.69-.41.1-.01.76-.12.62-.08.31.02.37,0,.16-.07-.44-.33-.51-.34-.19-.04-.07-.12.32.52.38.65,0-.02.33.67.21.4.29.67.46,1.41.6,2.13,0-.02.13.83.08.45.05.38.08.75.1,1.13.05.75.07,1.51.08,2.26l4.91-.66c-.25-1.13-.49-2.26-.74-3.4-.27-1.24-.54-2.55-1.72-3.26-1.05-.64-2.38-.57-3.57-.65s-2.47-.17-3.7-.25-2.32,1.02-2.46,2.17c-.15,1.28.59,2.32,1.79,2.74,1.44.51,2.82,1.68,4.07,2.76l2.43-4.18c-2.6-1.05-5.27-1.89-8-2.52l1.1,4.18,6.3-6.34c2.27-2.29-1.26-5.82-3.54-3.54-2.1,2.11-4.2,4.23-6.3,6.34-1.28,1.29-.76,3.75,1.1,4.18,2.73.63,5.4,1.47,8,2.52,2.32.94,4.26-2.61,2.43-4.18-1.92-1.66-3.85-3.19-6.28-4.04l-.66,4.91c.94.06,1.88.13,2.82.19.35.02.7.05,1.06.07.37.03,1.06.21,1.41.1-1.11-1.34-1.56-1.64-1.33-.89.05.23.1.45.15.68.07.34.15.68.22,1.02.2.91.4,1.81.59,2.72.61,2.77,4.96,2.13,4.91-.66-.06-3.62-.32-8.07-3.11-10.76-1.83-1.77-4.38-1.03-6.61-.69s-4.26.71-6.37,1.14-2.4,3.56-.6,4.57c1.52.85,3.28,1.29,5.02,1.06l-.66-4.91c-2.82.83-5.67,1.51-8.56,2.04-1.33.24-2.08,1.86-1.75,3.08.38,1.4,1.74,1.99,3.08,1.75h0Z"/>
  <path class="cls-1" d="M212.68,486.28c.66,3.64.22,7.42-.05,11.07s-.56,7.58-.84,11.37c-.57,7.58-1.14,15.16-1.76,22.73-1.25,15.31-2.67,30.61-4.47,45.87-.89,7.6-1.8,15.19-2.1,22.84s-.21,15.07-.21,22.61c0,3.94,0,7.88.01,11.82v5.42c0,.77.02,1.54,0,2.31,0-.02-.03.72-.04.7.24,1.02-.49-.2.25.19.21.11-.22-.02-.26-.12-.22-.56-.54-.97-.69-1.61-.42-1.72-.64-3.51-.88-5.26-.48-3.43-.8-6.89-.98-10.35-.85-16.09,1.42-32.22,6.66-47.45.44-1.28-.5-2.73-1.75-3.08-1.37-.38-2.63.46-3.08,1.75-4.97,14.45-7.35,29.82-6.98,45.09.09,3.84.36,7.68.8,11.5.2,1.75.44,3.49.7,5.24.29,1.89.49,3.86,1.27,5.62,1.45,3.27,5.93,5.2,8.63,2.1,1.13-1.29,1.33-3.01,1.35-4.66.02-1.97,0-3.94,0-5.91-.01-16.18-.57-32.47,1.12-48.59s3.6-32.05,4.98-48.13c.78-9.05,1.49-18.11,2.17-27.17.35-4.61.69-9.23,1.03-13.84s.75-8.93-.06-13.39c-.24-1.33-1.86-2.08-3.08-1.75-1.4.38-1.99,1.74-1.75,3.08h0Z"/>
  <path class="cls-1" d="M200.52,589.6c.09,17.32.06,34.65-.09,51.97h5c-.31-5.05-1.7-9.91-2.35-14.91s-.17-10.03.63-14.97c1.66-10.24,3.45-20.4,4.37-30.74.52-5.86.85-11.74.99-17.62h-5c.35,7.4-.96,14.67-3.83,21.49l4.91.66c-.32-16.19,6.25-31.37,8.68-47.18.7-4.54,1.1-9.11.93-13.71-.1-2.7-4.32-3.54-4.91-.66-1.63,7.98-2.39,16.13-2.21,24.27.07,3.21,5.07,3.22,5,0-.18-7.71.49-15.39,2.03-22.94l-4.91-.66c.59,16.19-5.93,31.41-8.51,47.18-.74,4.54-1.2,9.11-1.1,13.71.02,1.23.93,2.31,2.17,2.46,1.34.16,2.25-.61,2.74-1.79,3.02-7.19,4.38-15.04,4.01-22.82-.15-3.2-4.92-3.23-5,0-.25,10.23-1.05,20.46-2.47,30.6-.71,5.1-1.65,10.15-2.52,15.23s-1.58,10.28-1.21,15.46c.41,5.72,2.2,11.24,2.55,16.96.2,3.19,4.97,3.25,5,0,.15-17.32.18-34.65.09-51.97-.02-3.22-5.02-3.22-5,0h0Z"/>
  <path class="cls-2" d="M247.1,238.86c5.68,12.27,12.16,26.37,8.63,40.18-2.73,10.68-11.29,19.45-21.86,22.51-2.37.69-2.38,4.14,0,4.82,14.6,4.21,30.13-.81,44.43-4.04,15.6-3.53,31.2-7.05,46.81-10.58,30.74-6.95,61.52-13.76,92.22-20.87,28.92-6.69,58-14.24,84.84-27.2,12.15-5.87,23.85-13.34,32.17-24.16,7.76-10.09,12.03-22.61,9.97-35.34-1.92-11.88-9.19-22.87-19.5-29.1-6-3.63-12.8-5.72-19.6-7.28-7.25-1.66-14.6-2.98-21.94-4.23-30.87-5.3-62.08-8.28-93.28-10.85-15.84-1.31-31.7-2.64-47.59-2.97s-31.01.56-46.41,2.72c-30.27,4.24-59.7,12.91-88.77,22.13-13,4.12-27.15,7.91-37.43,17.4-9.01,8.31-14.41,21.48-9.45,33.35,4.41,10.55,14.98,16.69,25.13,20.74,13.27,5.28,27.64,8.48,41.67,10.93,7.38,1.29,14.82,2.26,22.28,2.96,3.2.3,3.18-4.7,0-5-14.62-1.36-29.11-3.92-43.31-7.66-11.25-2.97-23.42-6.16-32.78-13.44-3.98-3.1-7.42-7.12-8.97-11.99-1.79-5.63-.9-11.63,1.74-16.85,5.99-11.84,18.37-17.6,30.34-21.69,13.65-4.66,27.51-8.84,41.37-12.81s28.31-7.66,42.71-10.43,29.01-4.65,43.69-5.21c15.29-.59,30.59.16,45.84,1.26,30.22,2.19,60.5,4.75,90.52,8.94,14.59,2.03,29.27,4.29,43.63,7.62,6.39,1.48,12.74,3.41,18.36,6.88,4.92,3.03,8.99,7.29,11.95,12.24,6.11,10.22,6.91,22.42,2.45,33.42-4.8,11.86-14.53,20.92-25.21,27.55-11.72,7.29-24.77,12.54-37.74,17.13s-27.4,8.68-41.34,12.16c-28.97,7.23-58.22,13.41-87.34,19.99-15.11,3.41-30.21,6.83-45.32,10.24-7.43,1.68-14.86,3.36-22.29,5.04s-14.57,3.5-21.94,4.72c-6.84,1.13-13.85,1.42-20.57-.52v4.82c9.35-2.71,17.41-9.24,22.08-17.78,5.54-10.12,5.23-21.78,2.04-32.61-2-6.78-4.94-13.25-7.9-19.65-1.35-2.92-5.66-.38-4.32,2.52h0Z"/>
  <text/>
  <g>
    <path class="cls-2" d="M268.74,158.22c0,.27-.21.57-.63.9-.42.33-.66.57-.72.72-.78,1.47-1.14,4.37-1.08,8.69l.04,1.75c.09-.03.19-.04.32-.04.45,0,.88.26,1.28.77.41.51.61,1.01.61,1.48,0,.36-.29.62-.85.77-.45.09-.9.18-1.35.27.03,1.41.06,2.83.09,4.27.06,1.83.25,3.19.58,4.1.24.75.36,1.25.36,1.48,0,.6-.23,1.15-.67,1.64-.45.49-.98.74-1.58.74-1.14,0-1.89-.6-2.25-1.8-.06-.24-.2-1.29-.4-3.15-.06-.66-.09-1.46-.09-2.39v-1.84c-.03-1.23-.11-2.23-.22-3.02-1.74.06-3.81.31-6.21.77-2.07.39-4.13.78-6.17,1.17.12.39.18,2.01.18,4.86,0,2.28.34,3.78,1.04,4.5.09.15.13.3.13.45,0,.78-.6,1.17-1.8,1.17-1.11,0-1.98-.35-2.61-1.04-.39-.42-.77-3.54-1.12-9.36-.57-.12-1.02-.46-1.35-1.04-.33-.57-.5-1.17-.5-1.8,0-.36.19-.61.58-.74.39-.13.77-.26,1.12-.38.03-.39.09-1.09.18-2.12.09-.87.13-1.56.13-2.07,0-5.28.29-8.64.85-10.08.48-1.17,1.31-1.75,2.48-1.75.72,0,1.4.23,2.02.7.63.47.95,1.04.95,1.73,0,.36-.12.81-.36,1.35-.33.72-.51,1.14-.54,1.26-.81,2.52-1.22,5.52-1.22,9v1.04c.27-.03.97-.15,2.12-.36,3.54-.72,6.87-1.08,9.99-1.08.09-4.41.21-7.26.36-8.55.51-4.32,1.54-6.48,3.1-6.48.93,0,1.69.35,2.29,1.06.6.71.9,1.52.9,2.45Z"/>
    <path class="cls-2" d="M286.74,181.98c0,1.5-1.02,2.67-3.06,3.51-1.59.66-3.26.99-4.99.99-4.62,0-6.93-2.62-6.93-7.88,0-2.16.52-4.56,1.57-7.2,1.29-3.24,2.85-4.86,4.68-4.86,1.65,0,3.43.74,5.33,2.21,1.9,1.47,2.86,3,2.86,4.59,0,1.98-.88,3.56-2.65,4.73-1.56,1.05-3.42,1.58-5.58,1.58-.42,0-1.1-.25-2.03-.77.12,2.85.96,4.27,2.52,4.27,1.32,0,2.62-.37,3.89-1.12,1.28-.75,2.09-1.12,2.45-1.12,1.29,0,1.94.36,1.94,1.08ZM281.83,173.48c0-.75-.22-1.46-.65-2.14s-1.01-1.01-1.73-1.01c-.99,0-1.75.44-2.29,1.31-.45.75-.67,1.64-.67,2.66,0,.57.19,1.03.58,1.4.39.36.88.54,1.48.54,2.19,0,3.29-.91,3.29-2.74Z"/>
    <path class="cls-2" d="M304.38,168.66c-.27,1.5-.53,2.99-.76,4.45-.3,1.74-.45,3.23-.45,4.46v12.24c0,2.22-.64,3.92-1.91,5.08-1.28,1.17-3.02,1.75-5.24,1.75-1.44,0-3.03-.38-4.77-1.12-2.07-.87-3.11-1.92-3.11-3.15,0-.42.17-.77.52-1.06.34-.29.73-.43,1.15-.43.27,0,.92.4,1.94,1.21,1.02.81,2.19,1.21,3.51,1.21,1.68,0,2.8-.62,3.38-1.84.42-.84.63-2.19.63-4.05,0-.69-.02-1.26-.04-1.71-.99.66-2.1.99-3.33.99-2.25,0-3.99-.81-5.22-2.43-1.11-1.47-1.67-3.34-1.67-5.62,0-.24.15-4.02.45-11.34.9-.39,1.62-.58,2.16-.58.6,0,1.49.36,2.66,1.08-.72,1.8-1.08,5.4-1.08,10.8,0,3.45.87,5.17,2.61,5.17,1.29,0,2.28-1.08,2.97-3.24.51-1.56.77-3.18.77-4.86v-5.49s-.05-.46-.14-1.48c1.23-.6,2.14-.9,2.75-.9s1.38.29,2.25.85Z"/>
    <path class="cls-2" d="M329.8,175.23c0,3.06-.54,5.66-1.62,7.79-1.35,2.76-3.39,4.14-6.12,4.14-1.47,0-2.73-.42-3.78-1.26v2.7c0,2.88.33,5.15.99,6.8.3.66.45,1.08.45,1.26,0,1.02-.6,1.53-1.8,1.53-.9,0-1.58-.17-2.02-.5-.33-.21-.66-.96-.99-2.25-.27-1.14-.41-2.01-.41-2.61v-10.84c0-.99.06-2.34.18-4.05.12-1.92.2-3.25.23-4.01.03-.75.03-1.74,0-2.97v-3.02c0-2.55.83-3.83,2.49-3.83.42,0,.8.14,1.16.43.36.29.53.62.53,1.01,0,.66-.08,1.86-.22,3.6,1.17-1.65,2.58-2.47,4.23-2.47,2.22,0,3.93.9,5.13,2.7,1.05,1.56,1.58,3.51,1.58,5.85ZM325.8,174.83c0-3.24-.69-4.86-2.08-4.86-.6,0-1.39.58-2.35,1.75-1.87,2.25-2.9,5.35-3.08,9.32.33.18.92.81,1.77,1.89.66.81,1.33,1.22,1.99,1.22,2.5,0,3.76-3.1,3.76-9.32Z"/>
    <path class="cls-2" d="M338.08,184.73c0,.54-.22,1-.65,1.37-.44.37-.94.56-1.51.56-1.89,0-2.83-2.48-2.83-7.43,0-2.25.02-5.62.07-10.12s.07-7.88.07-10.12c0-.36-.04-.88-.13-1.57-.09-.69-.13-1.2-.13-1.53.99-.66,1.77-.99,2.34-.99.66,0,1.29.22,1.89.65.6.44.9.98.9,1.64,0,.33-.08.72-.23,1.17-.21.72-.33,1.11-.36,1.17-.39,1.86-.58,4.5-.58,7.92v8.37c.09,3.78.4,6.42.94,7.92.15.42.23.75.23.99Z"/>
    <path class="cls-2" d="M354.96,181.98c0,1.5-1.02,2.67-3.06,3.51-1.59.66-3.25.99-4.99.99-4.62,0-6.93-2.62-6.93-7.88,0-2.16.52-4.56,1.58-7.2,1.29-3.24,2.85-4.86,4.68-4.86,1.65,0,3.43.74,5.33,2.21,1.9,1.47,2.86,3,2.86,4.59,0,1.98-.89,3.56-2.66,4.73-1.56,1.05-3.42,1.58-5.58,1.58-.42,0-1.09-.25-2.02-.77.12,2.85.96,4.27,2.52,4.27,1.32,0,2.62-.37,3.89-1.12,1.27-.75,2.09-1.12,2.45-1.12,1.29,0,1.94.36,1.94,1.08ZM350.05,173.48c0-.75-.22-1.46-.65-2.14-.44-.67-1.01-1.01-1.73-1.01-.99,0-1.75.44-2.29,1.31-.45.75-.67,1.64-.67,2.66,0,.57.19,1.03.58,1.4.39.36.88.54,1.48.54,2.19,0,3.29-.91,3.29-2.74Z"/>
    <path class="cls-2" d="M373,178.29c0,3.87-.12,6.6-.36,8.19-.15.93-.78,1.4-1.89,1.4-1.68,0-2.43-.84-2.25-2.52-1.5.72-3.06,1.08-4.68,1.08s-3.04-.39-4.45-1.17c-1.68-.93-2.52-2.12-2.52-3.56s.96-2.73,2.88-3.96c1.74-1.11,3.38-1.67,4.91-1.67h3.83v-1.07c.03-3.12-.9-4.69-2.79-4.69-2.37,0-3.56,1.1-3.56,3.3,0,.74-.42,1.11-1.26,1.11-.51,0-1.04-.23-1.6-.7-.55-.46-.83-.95-.83-1.46,0-1.68.6-3.06,1.8-4.14,1.2-1.08,2.64-1.62,4.32-1.62,5.64,0,8.46,3.83,8.46,11.48ZM368.46,179.91c0-.6-.45-.9-1.35-.9-3.75,0-5.62.89-5.62,2.66,0,.96.83,1.44,2.48,1.44,1.02,0,1.98-.28,2.88-.85,1.08-.63,1.62-1.41,1.62-2.34Z"/>
    <path class="cls-2" d="M391.27,181.4c0,1.41-.6,2.64-1.8,3.69-1.32,1.14-3.09,1.71-5.31,1.71-.96.03-2-.17-3.1-.58-3.6-1.35-5.4-2.44-5.4-3.29,0-1.32.95-1.98,2.83-1.98.27,0,.55.02.86.04.09.9.81,1.62,2.16,2.16,1.17.48,2.29.67,3.38.58.87-.06,1.3-.37,1.3-.94,0-.09-.02-.23-.07-.41-.04-.18-.07-.32-.07-.43s-.57-.34-1.71-.7c-1.29-.39-2.01-.61-2.16-.67-3.42-2.04-5.13-4.5-5.13-7.38,0-1.74.5-3.34,1.48-4.81,1.11-1.62,2.49-2.43,4.14-2.43,1.23,0,2.63.48,4.21,1.44,1.58.96,2.54,2,2.9,3.1.24.78.36,1.43.36,1.94,0,.54-.08.99-.22,1.35-.18.45-.36.9-.54,1.35-.57.39-1.14.58-1.71.58-.3,0-.8-.19-1.51-.56-.71-.38-1.06-.7-1.06-.97,0-.12.18-.51.54-1.17.21-.39.32-.72.32-.99,0-1.8-.71-2.7-2.12-2.7-.84,0-1.49.54-1.94,1.62-.33.84-.49,1.74-.49,2.7,0,1.2.85,2.28,2.56,3.24,1.56.69,3.13,1.4,4.72,2.11,1.71.78,2.57,1.58,2.57,2.39Z"/>
    <path class="cls-2" d="M407.65,181.98c0,1.5-1.02,2.67-3.06,3.51-1.59.66-3.25.99-4.99.99-4.62,0-6.93-2.62-6.93-7.88,0-2.16.52-4.56,1.58-7.2,1.29-3.24,2.85-4.86,4.68-4.86,1.65,0,3.43.74,5.33,2.21,1.9,1.47,2.86,3,2.86,4.59,0,1.98-.89,3.56-2.66,4.73-1.56,1.05-3.42,1.58-5.58,1.58-.42,0-1.09-.25-2.02-.77.12,2.85.96,4.27,2.52,4.27,1.32,0,2.62-.37,3.89-1.12,1.27-.75,2.09-1.12,2.45-1.12,1.29,0,1.94.36,1.94,1.08ZM402.75,173.48c0-.75-.22-1.46-.65-2.14-.44-.67-1.01-1.01-1.73-1.01-.99,0-1.75.44-2.29,1.31-.45.75-.67,1.64-.67,2.66,0,.57.19,1.03.58,1.4.39.36.88.54,1.48.54,2.19,0,3.29-.91,3.29-2.74Z"/>
    <path class="cls-2" d="M432,186.66c-.57.57-1.32.85-2.25.85-.63,0-1.28-.39-1.93-1.17v-6.12c0-6.66-.96-9.99-2.88-9.99s-2.97,2.69-2.97,8.06v2.61c0,.45.07,1.13.22,2.05.15.92.22,1.6.22,2.05,0,.39-.23.74-.7,1.06-.46.32-.89.47-1.28.47-.75,0-1.39-.31-1.91-.92-.52-.62-.79-1.3-.79-2.05l.18-26.05v-.68c0-1.08.6-1.62,1.8-1.62.57,0,1.23.26,1.98.79.75.53,1.12,1.06,1.12,1.6,0,.66-.14,1.64-.43,2.94-.29,1.29-.43,2.27-.43,2.94,0,.84.03,2.18.09,4.02.66-.39,1.21-.58,1.67-.58,1.17,0,2.44.29,3.83.85,1.77.75,3,1.97,3.69,3.65.51,1.26.76,3,.76,5.22v10.04Z"/>
    <path class="cls-2" d="M449.05,181.98c0,1.5-1.02,2.67-3.06,3.51-1.59.66-3.25.99-4.99.99-4.62,0-6.93-2.62-6.93-7.88,0-2.16.52-4.56,1.58-7.2,1.29-3.24,2.85-4.86,4.68-4.86,1.65,0,3.43.74,5.33,2.21,1.9,1.47,2.86,3,2.86,4.59,0,1.98-.89,3.56-2.66,4.73-1.56,1.05-3.42,1.58-5.58,1.58-.42,0-1.09-.25-2.02-.77.12,2.85.96,4.27,2.52,4.27,1.32,0,2.62-.37,3.89-1.12,1.27-.75,2.09-1.12,2.45-1.12,1.29,0,1.94.36,1.94,1.08ZM444.15,173.48c0-.75-.22-1.46-.65-2.14-.44-.67-1.01-1.01-1.73-1.01-.99,0-1.75.44-2.29,1.31-.45.75-.67,1.64-.67,2.66,0,.57.19,1.03.58,1.4.39.36.88.54,1.48.54,2.19,0,3.29-.91,3.29-2.74Z"/>
    <path class="cls-2" d="M456.52,184.73c0,.54-.22,1-.65,1.37-.44.37-.94.56-1.51.56-1.89,0-2.83-2.48-2.83-7.43,0-2.25.02-5.62.07-10.12s.07-7.88.07-10.12c0-.36-.04-.88-.13-1.57-.09-.69-.13-1.2-.13-1.53.99-.66,1.77-.99,2.34-.99.66,0,1.29.22,1.89.65.6.44.9.98.9,1.64,0,.33-.08.72-.23,1.17-.21.72-.33,1.11-.36,1.17-.39,1.86-.58,4.5-.58,7.92v8.37c.09,3.78.4,6.42.94,7.92.15.42.23.75.23.99Z"/>
    <path class="cls-2" d="M474.52,175.23c0,3.06-.54,5.66-1.62,7.79-1.35,2.76-3.39,4.14-6.12,4.14-1.47,0-2.73-.42-3.78-1.26v2.7c0,2.88.33,5.15.99,6.8.3.66.45,1.08.45,1.26,0,1.02-.6,1.53-1.8,1.53-.9,0-1.58-.17-2.02-.5-.33-.21-.66-.96-.99-2.25-.27-1.14-.41-2.01-.41-2.61v-10.84c0-.99.06-2.34.18-4.05.12-1.92.2-3.25.23-4.01.03-.75.03-1.74,0-2.97v-3.02c0-2.55.83-3.83,2.49-3.83.42,0,.8.14,1.16.43.36.29.53.62.53,1.01,0,.66-.08,1.86-.22,3.6,1.17-1.65,2.58-2.47,4.23-2.47,2.22,0,3.93.9,5.13,2.7,1.05,1.56,1.58,3.51,1.58,5.85ZM470.52,174.83c0-3.24-.69-4.86-2.08-4.86-.6,0-1.39.58-2.35,1.75-1.87,2.25-2.9,5.35-3.08,9.32.33.18.92.81,1.77,1.89.66.81,1.33,1.22,1.99,1.22,2.5,0,3.76-3.1,3.76-9.32Z"/>
    <path class="cls-2" d="M507.51,185.85c-1.01.63-1.78.94-2.31.94-.39,0-.98-.21-1.78-.63v-4.95c0-7.98-.66-11.97-1.96-11.97-.98,0-1.77,1.21-2.36,3.65-.45,1.77-.67,3.41-.67,4.9v4.14c0,.21.07.52.22.92s.23.71.23.92c0,.48-.26.91-.77,1.28-.51.38-1,.56-1.48.56-.51,0-1.02-.25-1.53-.77-.51-.51-.76-1-.76-1.48v-8.37c0-3.39-.38-5.08-1.15-5.08-.12,0-.38.29-.78.85-2.17,2.88-3.25,5.97-3.25,9.27,0,.48.07,1.18.2,2.09.13.92.2,1.6.2,2.05,0,.6-.19,1.1-.56,1.48s-.86.58-1.46.58c-.69,0-1.25-.24-1.66-.72-.15-.21-.33-.91-.54-2.11-.18-1.11-.27-1.87-.27-2.29v-9.79c0-.72.18-1.68.54-2.87.45-1.44.93-2.16,1.44-2.16.6,0,1.14.23,1.62.68.48.46.69.98.63,1.57.87-1.44,1.99-2.16,3.38-2.16,1.71,0,3.1,1.14,4.18,3.42.57-1.35,1.08-2.28,1.53-2.79.75-.87,1.68-1.31,2.79-1.31s2.23.58,3.38,1.75c1.98,2.01,2.97,5.45,2.97,10.31v8.06Z"/>
    <path class="cls-2" d="M525.6,181.98c0,1.5-1.02,2.67-3.06,3.51-1.59.66-3.25.99-4.99.99-4.62,0-6.93-2.62-6.93-7.88,0-2.16.52-4.56,1.58-7.2,1.29-3.24,2.85-4.86,4.68-4.86,1.65,0,3.43.74,5.33,2.21,1.9,1.47,2.86,3,2.86,4.59,0,1.98-.89,3.56-2.66,4.73-1.56,1.05-3.42,1.58-5.58,1.58-.42,0-1.09-.25-2.02-.77.12,2.85.96,4.27,2.52,4.27,1.32,0,2.62-.37,3.89-1.12,1.27-.75,2.09-1.12,2.45-1.12,1.29,0,1.94.36,1.94,1.08ZM520.69,173.48c0-.75-.22-1.46-.65-2.14-.44-.67-1.01-1.01-1.73-1.01-.99,0-1.75.44-2.29,1.31-.45.75-.67,1.64-.67,2.66,0,.57.19,1.03.58,1.4.39.36.88.54,1.48.54,2.19,0,3.29-.91,3.29-2.74Z"/>
    <path class="cls-2" d="M251.28,202.28c0,.51-.25.93-.74,1.26-.5.33-1,.5-1.51.5-.39,0-.81-.18-1.26-.54-.03-.6-.15-.98-.36-1.15-.21-.16-.65-.25-1.31-.25-1.29,0-2.22,1.61-2.79,4.82-.3,1.84-.47,3.97-.49,6.38h1.12c1.26,0,2.16.49,2.7,1.48l-.4,1.71c-.57.3-1.56.45-2.97.45-.24,0-.44.02-.58.04-.09.99-.13,2.07-.13,3.24v4.1c0,1.59.24,3.23.72,4.9-1.17.66-2.02.99-2.56.99-.72,0-1.29-.56-1.71-1.67-.36-.87-.54-1.74-.54-2.61,0-.54.06-3.42.18-8.64-.99.09-1.46.13-1.4.13-.51,0-.96-.16-1.35-.49-.39-.33-.58-.76-.58-1.3,0-.93.39-1.53,1.17-1.8.42-.12,1.2-.18,2.34-.18.09-.3.14-1.21.14-2.74,0-3.08.5-5.76,1.48-8.04,1.35-2.99,3.38-4.49,6.08-4.49,1.35,0,2.46.3,3.33.9.96.72,1.44,1.71,1.44,2.97Z"/>
    <path class="cls-2" d="M254.74,211.82c0,.54-.12,1.31-.36,2.3-.24.99-.36,1.75-.36,2.29v9.27c0,.57.18,1.47.54,2.7-.45.69-.95,1.04-1.5,1.04-1.91,0-2.95-.94-3.14-2.83-.3-3.51-.45-6.15-.45-7.92,0-2.97.12-5.46.36-7.47v-.45c0-.54.42-.81,1.25-.81.74,0,1.49.15,2.23.45.95.33,1.43.81,1.43,1.44ZM255.15,205.52c0,.66-.23,1.2-.68,1.62-.45.42-1.01.63-1.67.63-.78,0-1.51-.27-2.18-.81-.68-.54-1.01-1.2-1.01-1.98,0-.66.23-1.2.7-1.62.46-.42,1.04-.63,1.73-.63.81,0,1.53.26,2.16.79.63.53.95,1.19.95,2Z"/>
    <path class="cls-2" d="M273.33,228.83c-.45.69-1.01,1.04-1.67,1.04-.51,0-1.35-.3-2.52-.9v-.54c0-.66.02-1.63.05-2.92.03-1.29.04-2.23.04-2.83,0-6.42-.96-9.63-2.86-9.63-.54,0-1.15.42-1.83,1.26-2.12,2.58-3.18,5.69-3.18,9.31,0,.51.1,1.27.29,2.27.19,1.01.29,1.76.29,2.27,0,.42-.2.77-.58,1.04-.39.27-.81.41-1.26.41-1.8,0-2.7-1.14-2.7-3.42v-9.4c0-.24.03-.59.09-1.06.06-.46.09-.82.09-1.06,0-.36-.05-.88-.16-1.57-.11-.69-.16-1.2-.16-1.53,0-.48.28-.94.83-1.37.55-.43,1.06-.65,1.51-.65.66,0,1.33.38,2.03,1.12l-.14,1.8c1.11-1.77,2.48-2.66,4.1-2.66,1.05,0,2.16.36,3.33,1.08,1.17.72,2.02,1.53,2.56,2.43,1.23,2.28,1.84,5.28,1.84,9v6.52Z"/>
    <path class="cls-2" d="M292.05,201.78c0,.66-.09,1.52-.27,2.56-.24,1.41-.39,2.25-.45,2.52-.09.93-.23,3.68-.43,8.23-.2,4.56-.29,7.08-.29,7.56,0,2.88.32,5.04.95,6.48-.51.84-1.1,1.26-1.75,1.26s-1.3-.26-1.84-.79c-.54-.52-.84-1.13-.9-1.82-1.41,1.29-2.85,1.94-4.32,1.94-2.19,0-3.88-.77-5.08-2.29-1.11-1.38-1.67-3.19-1.67-5.44,0-2.64.54-5.33,1.62-8.06,1.38-3.45,3.18-5.17,5.4-5.17,1.32,0,2.67.58,4.05,1.75.15-1.41.22-5.01.22-10.8,0-.54.41-.81,1.22-.81.96,0,1.79.24,2.5.72.7.48,1.06,1.2,1.06,2.16ZM286.83,217.04c0-1.02-.23-1.95-.68-2.79-.57-1.02-1.32-1.53-2.25-1.53-1.35,0-2.38,1.33-3.1,4-.54,1.92-.81,3.81-.81,5.67,0,2.79.81,4.19,2.43,4.19s2.89-1.24,3.64-3.73c.51-1.68.77-3.61.77-5.81Z"/>
    <path class="cls-2" d="M324.58,229.05c-1.01.63-1.78.94-2.31.94-.39,0-.98-.21-1.78-.63v-4.95c0-7.98-.66-11.97-1.96-11.97-.98,0-1.77,1.21-2.36,3.65-.45,1.77-.67,3.41-.67,4.9v4.14c0,.21.07.52.22.92s.23.71.23.92c0,.48-.26.91-.77,1.28-.51.38-1,.56-1.48.56-.51,0-1.02-.25-1.53-.77-.51-.51-.76-1-.76-1.48v-8.37c0-3.39-.38-5.08-1.15-5.08-.12,0-.38.29-.78.85-2.17,2.88-3.25,5.97-3.25,9.27,0,.48.07,1.18.2,2.09.13.92.2,1.6.2,2.05,0,.6-.19,1.1-.56,1.48s-.86.58-1.46.58c-.69,0-1.25-.24-1.66-.72-.15-.21-.33-.91-.54-2.11-.18-1.11-.27-1.87-.27-2.29v-9.79c0-.72.18-1.68.54-2.87.45-1.44.93-2.16,1.44-2.16.6,0,1.14.23,1.62.68.48.46.69.98.63,1.57.87-1.44,1.99-2.16,3.38-2.16,1.71,0,3.1,1.14,4.18,3.42.57-1.35,1.08-2.28,1.53-2.79.75-.87,1.68-1.31,2.79-1.31s2.23.58,3.38,1.75c1.98,2.01,2.97,5.45,2.97,10.31v8.06Z"/>
    <path class="cls-2" d="M343.35,211.86c-.27,1.5-.53,2.99-.76,4.45-.3,1.74-.45,3.23-.45,4.46v12.24c0,2.22-.64,3.92-1.91,5.08-1.28,1.17-3.02,1.75-5.24,1.75-1.44,0-3.03-.38-4.77-1.12-2.07-.87-3.11-1.92-3.11-3.15,0-.42.17-.77.52-1.06.34-.29.73-.43,1.15-.43.27,0,.92.4,1.94,1.21,1.02.81,2.19,1.21,3.51,1.21,1.68,0,2.8-.62,3.38-1.84.42-.84.63-2.19.63-4.05,0-.69-.02-1.26-.04-1.71-.99.66-2.1.99-3.33.99-2.25,0-3.99-.81-5.22-2.43-1.11-1.47-1.67-3.34-1.67-5.62,0-.24.15-4.02.45-11.34.9-.39,1.62-.58,2.16-.58.6,0,1.49.36,2.66,1.08-.72,1.8-1.08,5.4-1.08,10.8,0,3.45.87,5.17,2.61,5.17,1.29,0,2.28-1.08,2.97-3.24.51-1.56.77-3.18.77-4.86v-5.49s-.05-.46-.14-1.48c1.23-.6,2.14-.9,2.75-.9s1.38.29,2.25.85Z"/>
    <path class="cls-2" d="M369,215.78c-.06.75-.26,2.07-.58,3.96-.3,1.65-.45,2.97-.45,3.96,0,.9.04,2.25.13,4.05s.13,3.15.13,4.05c0,1.86-.18,3.24-.54,4.14-.42,1.14-1.21,2.06-2.38,2.77-1.17.7-2.38,1.06-3.64,1.06-1.32,0-2.96-.36-4.91-1.08-2.34-.84-3.51-1.77-3.51-2.79,0-1.32.61-1.98,1.84-1.98.57,0,.96.16,1.17.5.39.6.65.96.79,1.08.14.12.62.26,1.46.43.84.16,1.42.25,1.75.25,2.7,0,4.05-1.7,4.05-5.08,0-.99-.04-1.83-.13-2.52-1.29,1.11-2.83,1.67-4.63,1.67-.75,0-1.59-.21-2.52-.63-.93-.42-1.63-.92-2.11-1.49-.93-1.08-1.4-2.68-1.4-4.81,0-2.55.58-5.35,1.75-8.42,1.44-3.75,3.2-5.62,5.27-5.62,1.26,0,2.46.58,3.6,1.76.84,1.11,1.68,2.2,2.52,3.28.24.3.61.57,1.12.81.63.3,1.03.53,1.21.67ZM364.46,218.48c0-.45-.21-.82-.63-1.12-.18-2.76-1.14-4.14-2.88-4.14-.99,0-1.82,1.4-2.47,4.19-.48,2.13-.72,3.98-.72,5.54,0,2.94.76,4.41,2.29,4.41,1.44,0,2.58-1.17,3.42-3.51.66-1.8.99-3.58.99-5.35Z"/>
    <path class="cls-2" d="M377.15,227.93c0,.54-.22,1-.65,1.37-.44.37-.94.56-1.51.56-1.89,0-2.83-2.48-2.83-7.43,0-2.25.02-5.62.07-10.12s.07-7.88.07-10.12c0-.36-.04-.88-.13-1.57-.09-.69-.13-1.2-.13-1.53.99-.66,1.77-.99,2.34-.99.66,0,1.29.22,1.89.65.6.44.9.98.9,1.64,0,.33-.08.72-.23,1.17-.21.72-.33,1.11-.36,1.17-.39,1.86-.58,4.5-.58,7.92v8.37c.09,3.78.4,6.42.94,7.92.15.42.23.75.23.99Z"/>
    <path class="cls-2" d="M395.28,221.49c0,3.87-.12,6.6-.36,8.19-.15.93-.78,1.4-1.89,1.4-1.68,0-2.43-.84-2.25-2.52-1.5.72-3.06,1.08-4.68,1.08s-3.04-.39-4.45-1.17c-1.68-.93-2.52-2.12-2.52-3.56s.96-2.73,2.88-3.96c1.74-1.11,3.38-1.67,4.91-1.67h3.83v-1.07c.03-3.12-.9-4.69-2.79-4.69-2.37,0-3.56,1.1-3.56,3.3,0,.74-.42,1.11-1.26,1.11-.51,0-1.04-.23-1.6-.7-.55-.46-.83-.95-.83-1.46,0-1.68.6-3.06,1.8-4.14,1.2-1.08,2.64-1.62,4.32-1.62,5.64,0,8.46,3.83,8.46,11.48ZM390.74,223.11c0-.6-.45-.9-1.35-.9-3.75,0-5.62.89-5.62,2.66,0,.96.83,1.44,2.48,1.44,1.02,0,1.98-.28,2.88-.85,1.08-.63,1.62-1.41,1.62-2.34Z"/>
    <path class="cls-2" d="M413.55,224.6c0,1.41-.6,2.64-1.8,3.69-1.32,1.14-3.09,1.71-5.31,1.71-.96.03-2-.17-3.1-.58-3.6-1.35-5.4-2.44-5.4-3.29,0-1.32.95-1.98,2.83-1.98.27,0,.55.02.86.04.09.9.81,1.62,2.16,2.16,1.17.48,2.29.67,3.38.58.87-.06,1.3-.37,1.3-.94,0-.09-.02-.23-.07-.41-.04-.18-.07-.32-.07-.43s-.57-.34-1.71-.7c-1.29-.39-2.01-.61-2.16-.67-3.42-2.04-5.13-4.5-5.13-7.38,0-1.74.5-3.34,1.48-4.81,1.11-1.62,2.49-2.43,4.14-2.43,1.23,0,2.63.48,4.21,1.44,1.58.96,2.54,2,2.9,3.1.24.78.36,1.43.36,1.94,0,.54-.08.99-.22,1.35-.18.45-.36.9-.54,1.35-.57.39-1.14.58-1.71.58-.3,0-.8-.19-1.51-.56-.71-.38-1.06-.7-1.06-.97,0-.12.18-.51.54-1.17.21-.39.32-.72.32-.99,0-1.8-.71-2.7-2.12-2.7-.84,0-1.49.54-1.94,1.62-.33.84-.49,1.74-.49,2.7,0,1.2.85,2.28,2.56,3.24,1.56.69,3.13,1.4,4.72,2.11,1.71.78,2.57,1.58,2.57,2.39Z"/>
    <path class="cls-2" d="M429.84,224.6c0,1.41-.6,2.64-1.8,3.69-1.32,1.14-3.09,1.71-5.31,1.71-.96.03-2-.17-3.1-.58-3.6-1.35-5.4-2.44-5.4-3.29,0-1.32.95-1.98,2.83-1.98.27,0,.55.02.86.04.09.9.81,1.62,2.16,2.16,1.17.48,2.29.67,3.38.58.87-.06,1.3-.37,1.3-.94,0-.09-.02-.23-.07-.41-.04-.18-.07-.32-.07-.43s-.57-.34-1.71-.7c-1.29-.39-2.01-.61-2.16-.67-3.42-2.04-5.13-4.5-5.13-7.38,0-1.74.5-3.34,1.48-4.81,1.11-1.62,2.49-2.43,4.14-2.43,1.23,0,2.63.48,4.21,1.44,1.58.96,2.54,2,2.9,3.1.24.78.36,1.43.36,1.94,0,.54-.08.99-.22,1.35-.18.45-.36.9-.54,1.35-.57.39-1.14.58-1.71.58-.3,0-.8-.19-1.51-.56-.71-.38-1.06-.7-1.06-.97,0-.12.18-.51.54-1.17.21-.39.32-.72.32-.99,0-1.8-.71-2.7-2.12-2.7-.84,0-1.49.54-1.94,1.62-.33.84-.49,1.74-.49,2.7,0,1.2.85,2.28,2.56,3.24,1.56.69,3.13,1.4,4.72,2.11,1.71.78,2.57,1.58,2.57,2.39Z"/>
    <path class="cls-2" d="M446.22,225.18c0,1.5-1.02,2.67-3.06,3.51-1.59.66-3.25.99-4.99.99-4.62,0-6.93-2.62-6.93-7.88,0-2.16.52-4.56,1.58-7.2,1.29-3.24,2.85-4.86,4.68-4.86,1.65,0,3.43.74,5.33,2.21,1.9,1.47,2.86,3,2.86,4.59,0,1.98-.89,3.56-2.66,4.73-1.56,1.05-3.42,1.58-5.58,1.58-.42,0-1.09-.25-2.02-.77.12,2.85.96,4.27,2.52,4.27,1.32,0,2.62-.37,3.89-1.12,1.27-.75,2.09-1.12,2.45-1.12,1.29,0,1.94.36,1.94,1.08ZM441.32,216.68c0-.75-.22-1.46-.65-2.14-.44-.67-1.01-1.01-1.73-1.01-.99,0-1.75.44-2.29,1.31-.45.75-.67,1.64-.67,2.66,0,.57.19,1.03.58,1.4.39.36.88.54,1.48.54,2.19,0,3.29-.91,3.29-2.74Z"/>
    <path class="cls-2" d="M463.23,224.6c0,1.41-.6,2.64-1.8,3.69-1.32,1.14-3.09,1.71-5.31,1.71-.96.03-2-.17-3.1-.58-3.6-1.35-5.4-2.44-5.4-3.29,0-1.32.95-1.98,2.83-1.98.27,0,.55.02.86.04.09.9.81,1.62,2.16,2.16,1.17.48,2.29.67,3.38.58.87-.06,1.3-.37,1.3-.94,0-.09-.02-.23-.07-.41-.04-.18-.07-.32-.07-.43s-.57-.34-1.71-.7c-1.29-.39-2.01-.61-2.16-.67-3.42-2.04-5.13-4.5-5.13-7.38,0-1.74.5-3.34,1.48-4.81,1.11-1.62,2.49-2.43,4.14-2.43,1.23,0,2.63.48,4.21,1.44,1.58.96,2.54,2,2.9,3.1.24.78.36,1.43.36,1.94,0,.54-.08.99-.22,1.35-.18.45-.36.9-.54,1.35-.57.39-1.14.58-1.71.58-.3,0-.8-.19-1.51-.56-.71-.38-1.06-.7-1.06-.97,0-.12.18-.51.54-1.17.21-.39.32-.72.32-.99,0-1.8-.71-2.7-2.12-2.7-.84,0-1.49.54-1.94,1.62-.33.84-.49,1.74-.49,2.7,0,1.2.85,2.28,2.56,3.24,1.56.69,3.13,1.4,4.72,2.11,1.71.78,2.57,1.58,2.57,2.39Z"/>
  </g>
  <path class="cls-2" d="M477.44,226.22c0,2.28-1.3,3.42-3.92,3.42-.48,0-1.39-.29-2.75-.85-.36-.66-.54-1.29-.54-1.89,0-1.74,1.07-2.61,3.2-2.61.78,0,1.58.15,2.38.45,1.08.39,1.62.89,1.62,1.49ZM478.74,200.61c0,.21-.08.44-.23.67-.21.33-.34.54-.41.63-.69,1.71-1.2,3.89-1.53,6.52-.15.93-.38,3.18-.67,6.75,0,.15-.04.44-.11.88-.08.44-.11.77-.11,1.01,0,.78.17,1.82.5,3.1-.18.24-.48.57-.9.99-.33.09-.69.13-1.08.13-.6,0-1.15-.15-1.66-.45-.45-.84-.68-1.92-.68-3.24s.28-3.43.83-6.14c.55-2.71.83-4.76.83-6.14,0-.54-.1-1.36-.29-2.45-.2-1.09-.29-1.91-.29-2.45,0-.3.03-.55.09-.77.75-.63,1.67-.94,2.75-.94.63,0,1.26.15,1.89.45.72.39,1.08.87,1.08,1.44Z"/>
</svg>